<?xml version="1.0" encoding="UTF-8"?>
<svg width="54px" height="40px" viewBox="0 0 54 40" version="1.1" xmlns="http://www.w3.org/2000/svg" xmlns:xlink="http://www.w3.org/1999/xlink">
    <!-- Generator: Sketch 63.1 (92452) - https://sketch.com -->
    <title>Shape</title>
    <desc>Created with Sketch.</desc>
    <g id="Page-1" stroke="none" stroke-width="1" fill="none" fill-rule="evenodd">
        <g id="Home-page-option-3" transform="translate(-2206.000000, -1461.000000)" fill="#000000" fill-rule="nonzero">
            <g id="Group-4" transform="translate(126.000000, 1446.000000)">
                <g id="Social-Icons" transform="translate(2080.000000, 15.000000)">
                    <g id="icons8-youtube">
                        <path d="M5.78571429,0.200956938 C2.60658771,0.200956938 0,2.83650289 0,6.05095706 L0,33.3509577 C0,36.5654118 2.60658771,39.2009569 5.78571429,39.2009569 L48.2142857,39.2009569 C51.3783501,39.2009569 54,36.5654118 54,33.3509577 L54,6.05095706 C54,2.83650289 51.3934161,0.200956938 48.2142857,0.200956938 L5.78571429,0.200956938 Z M5.78571429,4.10095702 L48.2142857,4.10095702 C49.2991071,4.10095702 50.1428571,4.95408204 50.1428571,6.05095706 L50.1428571,33.3509577 C50.1428571,34.4478327 49.2991071,35.3009577 48.2142857,35.3009577 L5.78571429,35.3009577 C4.70089286,35.3009577 3.85714286,34.4478327 3.85714286,33.3509577 L3.85714286,6.05095706 C3.85714286,4.95408204 4.70089286,4.10095702 5.78571429,4.10095702 Z M19.3309161,7.92478621 L19.3309161,31.4009576 L38.6166304,19.6552533 L19.3309161,7.92478621 Z M23.188059,14.8107239 L31.1434161,19.6552533 L23.188059,24.4997866 L23.188059,14.8107239 Z" id="Shape"></path>
                    </g>
                </g>
            </g>
        </g>
    </g>
</svg>