<?xml version="1.0" encoding="UTF-8"?>
<svg width="254px" height="254px" viewBox="0 0 254 254" version="1.1" xmlns="http://www.w3.org/2000/svg" xmlns:xlink="http://www.w3.org/1999/xlink">
    <!-- Generator: Sketch 63.1 (92452) - https://sketch.com -->
    <title>black-instagram-logo-3497</title>
    <desc>Created with Sketch.</desc>
    <g id="Page-1" stroke="none" stroke-width="1" fill="none" fill-rule="evenodd">
        <g id="black-instagram-logo-3497" fill="#FFFFFF" fill-rule="nonzero">
            <path d="M175.35021,253.036 L78.6525904,253.036 C35.8143544,253.036 0.964,218.185646 0.964,175.35021 L0.964,78.6525904 C0.964,35.8143544 35.8143544,0.964 78.6525904,0.964 L175.35021,0.964 C218.185646,0.964 253.036,35.8143544 253.036,78.6525904 L253.036,175.35021 C253.036,218.185646 218.185646,253.036 175.35021,253.036 Z M78.6525904,20.5696 C46.6254424,20.5696 20.5696,46.6254424 20.5696,78.6525904 L20.5696,175.35021 C20.5696,207.374558 46.6254424,233.4304 78.6525904,233.4304 L175.35021,233.4304 C207.374558,233.4304 233.4304,207.374558 233.4304,175.35021 L233.4304,78.6525904 C233.4304,46.6254424 207.374558,20.5696 175.35021,20.5696 L78.6525904,20.5696 Z" id="Shape"></path>
            <path d="M127.714204,198.336376 C88.7718808,198.336376 57.092032,166.653726 57.092032,127.714204 C57.092032,88.7746816 88.7746816,57.092032 127.714204,57.092032 C166.653726,57.092032 198.336376,88.7746816 198.336376,127.714204 C198.336376,166.653726 166.656527,198.336376 127.714204,198.336376 Z M127.714204,76.697632 C99.5829688,76.697632 76.697632,99.5829688 76.697632,127.714204 C76.697632,155.845439 99.5829688,178.730776 127.714204,178.730776 C155.845439,178.730776 178.730776,155.845439 178.730776,127.714204 C178.733577,99.5829688 155.84824,76.697632 127.714204,76.697632 Z" id="Shape"></path>
            <circle id="Oval" cx="198.580046" cy="56.8035496" r="13.7155176"></circle>
        </g>
    </g>
</svg>