<?xml version="1.0" encoding="UTF-8"?>
<svg width="29px" height="21px" viewBox="0 0 29 21" version="1.1" xmlns="http://www.w3.org/2000/svg" xmlns:xlink="http://www.w3.org/1999/xlink">
    <!-- Generator: Sketch 63.1 (92452) - https://sketch.com -->
    <title>Shape</title>
    <desc>Created with Sketch.</desc>
    <g id="Page-1" stroke="none" stroke-width="1" fill="none" fill-rule="evenodd">
        <g id="iPhone-SE" transform="translate(-52.000000, -518.000000)" fill="#FFFFFF" fill-rule="nonzero" stroke="#979797" stroke-width="0.5">
            <g id="Social-Icons" transform="translate(53.000000, 519.000000)">
                <g id="icons8-youtube">
                    <path d="M2.89285714,0.100478469 C1.30329386,0.100478469 0,1.41825145 0,3.02547853 L0,16.6754788 C0,18.2827059 1.30329386,19.6004785 2.89285714,19.6004785 L24.1071429,19.6004785 C25.6891751,19.6004785 27,18.2827059 27,16.6754788 L27,3.02547853 C27,1.41825145 25.6967081,0.100478469 24.1071429,0.100478469 L2.89285714,0.100478469 Z M2.89285714,2.05047851 L24.1071429,2.05047851 C24.6495536,2.05047851 25.0714286,2.47704102 25.0714286,3.02547853 L25.0714286,16.6754788 C25.0714286,17.2239163 24.6495536,17.6504788 24.1071429,17.6504788 L2.89285714,17.6504788 C2.35044643,17.6504788 1.92857143,17.2239163 1.92857143,16.6754788 L1.92857143,3.02547853 C1.92857143,2.47704102 2.35044643,2.05047851 2.89285714,2.05047851 Z M9.66545807,3.9623931 L9.66545807,15.7004788 L19.3083152,9.82762663 L9.66545807,3.9623931 Z M11.5940295,7.40536193 L15.5717081,9.82762663 L11.5940295,12.2498933 L11.5940295,7.40536193 Z" id="Shape"></path>
                </g>
            </g>
        </g>
    </g>
</svg>